<?xml version="1.0" encoding="UTF-8"?>
<svg id="Layer_2" data-name="Layer 2" xmlns="http://www.w3.org/2000/svg" xmlns:xlink="http://www.w3.org/1999/xlink" viewBox="0 0 180 72.28">
  <defs>
    <style>
      .cls-1 {
        fill: url(#Degradado_sin_nombre_25-2);
      }

      .cls-2 {
        fill: #976e44;
      }

      .cls-3 {
        fill: url(#Degradado_sin_nombre_18);
      }

      .cls-4 {
        fill: #0046c9;
      }

      .cls-5 {
        fill: url(#Degradado_sin_nombre_26-2);
      }

      .cls-6 {
        fill: url(#Degradado_sin_nombre_25);
      }

      .cls-7 {
        fill: url(#Degradado_sin_nombre_26);
      }
    </style>
    <linearGradient id="Degradado_sin_nombre_25" data-name="Degradado sin nombre 25" x1="3.73" y1="16.27" x2="47.23" y2="16.27" gradientUnits="userSpaceOnUse">
      <stop offset="0" stop-color="#0048d0"/>
      <stop offset=".5" stop-color="#0048cf" stop-opacity=".4"/>
      <stop offset=".55" stop-color="#0048cf" stop-opacity=".35"/>
      <stop offset=".74" stop-color="#0048cf" stop-opacity=".16"/>
      <stop offset=".9" stop-color="#0048cf" stop-opacity=".04"/>
      <stop offset="1" stop-color="#0048d0" stop-opacity="0"/>
    </linearGradient>
    <linearGradient id="Degradado_sin_nombre_26" data-name="Degradado sin nombre 26" x1="0" y1="48.81" x2="43.5" y2="48.81" gradientUnits="userSpaceOnUse">
      <stop offset="0" stop-color="#0048d0" stop-opacity="0"/>
      <stop offset=".1" stop-color="#0048cf" stop-opacity=".04"/>
      <stop offset=".26" stop-color="#0048cf" stop-opacity=".16"/>
      <stop offset=".45" stop-color="#0048cf" stop-opacity=".35"/>
      <stop offset=".5" stop-color="#0048cf" stop-opacity=".4"/>
      <stop offset="1" stop-color="#0048d0"/>
    </linearGradient>
    <linearGradient id="Degradado_sin_nombre_25-2" data-name="Degradado sin nombre 25" x1="10.93" y1="23.47" x2="54.43" y2="23.47" xlink:href="#Degradado_sin_nombre_25"/>
    <linearGradient id="Degradado_sin_nombre_26-2" data-name="Degradado sin nombre 26" x1="7.2" y1="56.01" x2="50.7" y2="56.01" xlink:href="#Degradado_sin_nombre_26"/>
    <linearGradient id="Degradado_sin_nombre_18" data-name="Degradado sin nombre 18" x1="3.73" y1="36.19" x2="50.7" y2="36.19" gradientUnits="userSpaceOnUse">
      <stop offset="0" stop-color="#0047d1" stop-opacity=".9"/>
      <stop offset=".33" stop-color="#0049d1" stop-opacity=".1"/>
      <stop offset=".66" stop-color="#0048cf" stop-opacity=".9"/>
      <stop offset="1" stop-color="#0047cf" stop-opacity=".1"/>
    </linearGradient>
  </defs>
  <g id="Logo">
    <g>
      <g>
        <path class="cls-4" d="m42.21,45.17l-.61.61h-14.56c-1.57,0-3.08-.63-4.18-1.76l-11.26-11.48c-1.06-1.7-.85-3.96.62-5.43l.64-.64h14.53c1.57,0,3.07.63,4.17,1.74,3.5,3.55,11.15,11.31,11.28,11.52,1.06,1.7.85,3.96-.62,5.43Z"/>
        <path class="cls-6" d="m5.02,26.13l6.41,6.41h24.37l-5.38-5.38c-2.29-2.29-2.29-6,0-8.29L46.8,2.5c.92-.92.27-2.5-1.04-2.5h-18.4c-1.55,0-3.04.62-4.14,1.72L5.02,19.91c-1.72,1.72-1.72,4.5,0,6.22Z"/>
        <path class="cls-7" d="m42.21,38.95l-6.41-6.41H11.43s5.38,5.38,5.38,5.38c2.29,2.29,2.29,6,0,8.29L.43,62.58c-.92.92-.27,2.5,1.04,2.5h18.4c1.55,0,3.04-.62,4.14-1.72l18.2-18.2c1.72-1.72,1.72-4.5,0-6.22Z"/>
        <path class="cls-1" d="m12.22,33.33l6.41,6.41h24.37l-5.38-5.38c-2.29-2.29-2.29-6,0-8.29l16.38-16.38c.92-.92.27-2.5-1.04-2.5h-18.4c-1.55,0-3.04.62-4.14,1.72L12.22,27.11c-1.72,1.72-1.72,4.5,0,6.22Z"/>
        <path class="cls-5" d="m49.41,46.15l-6.41-6.41h-24.37s5.38,5.38,5.38,5.38c2.29,2.29,2.29,6,0,8.29l-16.38,16.38c-.92.92-.27,2.5,1.04,2.5h18.4c1.55,0,3.04-.62,4.14-1.72l18.2-18.2c1.72-1.72,1.72-4.5,0-6.22Z"/>
        <path class="cls-3" d="m49.41,52.37l-.65.65h-14.41c-1.55,0-3.04-.62-4.14-1.72L5.02,26.13c-1.72-1.72-1.72-4.5,0-6.21l.56-.56h14.61c1.55,0,3.04.62,4.14,1.72l25.08,25.08c1.72,1.72,1.72,4.5,0,6.22Z"/>
      </g>
      <g>
        <polygon class="cls-2" points="71.96 21.36 71.96 26.06 95.87 26.06 95.87 45.48 64.6 45.48 64.6 38.12 88.5 38.12 88.5 33.42 64.6 33.42 64.6 14 95.87 14 95.87 21.36 71.96 21.36"/>
        <rect class="cls-2" x="93.27" y="26.06" width="31.48" height="7.36" transform="translate(138.75 -79.27) rotate(90)"/>
        <rect class="cls-2" x="110.1" y="26.06" width="31.48" height="7.36" transform="translate(155.58 -96.1) rotate(90)"/>
        <polygon class="cls-2" points="180 14 180 45.48 172.64 45.48 172.64 21.36 163.17 21.36 163.17 45.48 155.81 45.48 155.81 21.36 146.35 21.36 146.35 45.48 138.98 45.48 138.98 14 180 14"/>
        <g>
          <path d="m64.6,51.17h1.57c2.78,0,3.89,1.58,3.89,3.51s-1.11,3.51-3.89,3.51h-1.57v-7.03Zm1.56,6.25c2.37,0,3.1-1.17,3.1-2.74s-.73-2.74-3.1-2.74h-.76v5.48h.76Z"/>
          <path d="m75.13,51.17h.79v7.03h-.79v-7.03Z"/>
          <path d="m80.93,56.86l.72-.43c.25.67.83,1.06,1.59,1.06.8,0,1.37-.46,1.37-1.13,0-.59-.4-.96-1.53-1.44-1.37-.56-1.87-1.07-1.87-1.99,0-1.1.81-1.86,1.97-1.86.75,0,1.45.32,1.89.88l-.62.53c-.28-.41-.72-.62-1.24-.62-.71,0-1.18.4-1.18,1,0,.55.38.9,1.46,1.34,1.46.6,1.94,1.12,1.94,2.11,0,1.17-.87,1.96-2.17,1.96-1.06,0-1.92-.53-2.31-1.43Z"/>
          <path d="m91.71,51.94h-1.93v-.77h4.66v.77h-1.93v6.25h-.8v-6.25Z"/>
          <path d="m99.19,51.17h2.44c1.28,0,2.07.69,2.07,1.97,0,1.12-.6,1.75-1.62,1.88l2.06,3.18h-.94l-1.99-3.16h-1.22v3.16h-.79v-7.03Zm2.37,3.16c.78,0,1.33-.24,1.33-1.18s-.55-1.2-1.33-1.2h-1.58v2.39h1.58Z"/>
          <path d="m109.05,51.17h.79v7.03h-.79v-7.03Z"/>
          <path d="m115.25,51.17h2.48c1.07,0,1.95.77,1.95,1.88,0,.71-.34,1.25-.92,1.55.76.24,1.24.85,1.24,1.75,0,1.09-.86,1.86-1.93,1.86h-2.82v-7.03Zm2.4,3.1c.77,0,1.23-.5,1.23-1.16s-.46-1.16-1.23-1.16h-1.62v2.33h1.62Zm.31,3.15c.78,0,1.24-.5,1.24-1.2s-.46-1.18-1.24-1.18h-1.93v2.39h1.93Z"/>
          <path d="m125.04,55.89v-4.72h.8v4.59c0,1.19.77,1.74,1.85,1.74s1.87-.54,1.87-1.74v-4.59h.79v4.72c0,1.58-1.11,2.4-2.66,2.4s-2.65-.82-2.65-2.4Z"/>
          <path d="m135.68,51.17h.79v7.03h-.79v-7.03Z"/>
          <path d="m141.78,51.17h1.57c2.78,0,3.89,1.58,3.89,3.51s-1.11,3.51-3.89,3.51h-1.57v-7.03Zm1.56,6.25c2.37,0,3.1-1.17,3.1-2.74s-.73-2.74-3.1-2.74h-.76v5.48h.76Z"/>
          <path d="m151.97,54.68c0-2,1.62-3.6,3.6-3.6s3.61,1.61,3.61,3.6-1.62,3.6-3.61,3.6-3.6-1.61-3.6-3.6Zm3.6,2.81c1.57,0,2.81-1.24,2.81-2.81s-1.24-2.81-2.81-2.81-2.81,1.24-2.81,2.81,1.25,2.81,2.81,2.81Z"/>
          <path d="m164.25,51.17h2.44c1.28,0,2.07.69,2.07,1.97,0,1.12-.6,1.75-1.62,1.88l2.06,3.18h-.94l-1.99-3.16h-1.22v3.16h-.79v-7.03Zm2.37,3.16c.78,0,1.33-.24,1.33-1.18s-.55-1.2-1.33-1.2h-1.58v2.39h1.58Z"/>
          <path d="m176.3,51.17h.89l2.81,7.03h-.86l-.63-1.62h-3.51l-.64,1.62h-.87l2.82-7.03Zm1.9,4.64l-1.45-3.68-1.46,3.68h2.9Z"/>
        </g>
      </g>
    </g>
  </g>
</svg>