<?xml version="1.0" encoding="utf-8"?>
<!-- Generator: Adobe Illustrator 25.4.1, SVG Export Plug-In . SVG Version: 6.00 Build 0)  -->
<svg version="1.0" xmlns="http://www.w3.org/2000/svg" xmlns:xlink="http://www.w3.org/1999/xlink" x="0px" y="0px"
	 viewBox="0 0 1080 1080" style="enable-background:new 0 0 1080 1080;" xml:space="preserve">
<g id="Capa_2">
	<circle style="fill:#0149D3;" cx="530.5" cy="545.5" r="478"/>
</g>
<g id="Capa_3">
	
		<rect x="517" y="169" transform="matrix(0.7071 0.7071 -0.7071 0.7071 546.7028 -213.8573)" style="fill:#FFFFFF;" width="29" height="768"/>
	
		<rect x="517" y="169" transform="matrix(-0.7071 0.7071 -0.7071 -0.7071 1298.3573 568.2028)" style="fill:#FFFFFF;" width="29" height="768"/>
</g>
<g id="Capa_4">
	<path style="fill:#FFFFFF;" d="M437.93,298.05l148.86-149.81c1.31-1.32,3.52,0.02,2.94,1.79l-34.99,108.65
		c-0.37,1.14,0.48,2.32,1.69,2.32h49.21c1.59,0,2.38,1.93,1.24,3.04L455.47,411.66c-1.34,1.31-3.54-0.1-2.91-1.86l37.6-105.48
		c0.41-1.14-0.43-2.35-1.64-2.37l-49.38-0.88C437.59,301.05,436.83,299.16,437.93,298.05z"/>
</g>
<g id="Capa_5">
	<circle style="fill-rule:evenodd;clip-rule:evenodd;fill:#FFFFFF;" cx="801" cy="537" r="99"/>
	<g>
		<g>
			<path style="fill-rule:evenodd;clip-rule:evenodd;fill:#0149D3;stroke:#0149D3;stroke-width:4;stroke-miterlimit:10;" d="
				M801.91,434.19c28.47,0,54.24,11.54,72.89,30.19c18.66,18.66,30.2,44.43,30.2,72.9c0,28.47-11.54,54.24-30.2,72.9
				c-18.66,18.65-44.43,30.19-72.89,30.19c-5.34,0-10.59-0.41-15.71-1.19c3.5-4.09,6.36-8.76,8.41-13.83
				c1.12,0.82,2.26,1.61,3.41,2.37V611.2c0.14-1.51,0.21-3.04,0.21-4.58c0-1.2-0.07-2.44-0.21-3.69v-14.05
				c-1.19,0.05-2.38,0.12-3.57,0.21c-0.94-2.48-2.04-4.99-3.26-7.51c2.25-0.24,4.53-0.4,6.82-0.49v-39.92h-33.49
				c-0.94-1.18-1.86-2.3-2.73-3.35c-1.49-1.8-3.05-3.27-4.67-4.43h40.89v-39.92c-11.31-0.43-22.14-2.72-32.21-6.57
				c-0.66-0.25-1.32-0.51-1.98-0.78c-6.67,13.38-10.8,28.58-11.66,44.77c-2.58-0.78-5.21-0.8-7.79-0.08
				c0.88-17.29,5.26-33.55,12.37-47.9c-6.46-3.23-12.52-7.14-18.11-11.62c-0.46,0.44-0.92,0.89-1.37,1.34
				c-15.69,15.69-25.7,37.06-26.69,60.75h28.55c-1.62,1.15-3.18,2.63-4.67,4.43c-0.87,1.06-1.78,2.17-2.73,3.35h-21.15
				c0.34,8.15,1.75,16.03,4.09,23.5c-2.35,3.65-4.6,7.39-6.64,11.12c-0.34,0.62-0.67,1.24-1,1.86c-5.28-12.4-8.21-26.05-8.21-40.37
				c0-28.47,11.54-54.24,30.19-72.9C747.67,445.73,773.44,434.19,801.91,434.19L801.91,434.19z M744.55,466.09
				c4.92,3.83,10.23,7.18,15.87,9.98c6.37-10.95,14.4-20.59,23.7-28.48C769.35,450.51,755.84,456.99,744.55,466.09L744.55,466.09z
				 M819.7,447.6c9.3,7.89,17.33,17.53,23.7,28.48c5.64-2.8,10.96-6.15,15.87-9.98C847.98,456.99,834.48,450.51,819.7,447.6
				L819.7,447.6z M865.18,471.3c-5.59,4.49-11.65,8.39-18.11,11.62c7.46,15.06,11.92,32.22,12.47,50.47h33.7
				c-0.99-23.7-11-45.06-26.69-60.75C866.1,472.19,865.64,471.74,865.18,471.3L865.18,471.3z M893.25,541.17h-33.7
				c-0.56,18.26-5.02,35.42-12.47,50.47c6.46,3.23,12.52,7.14,18.11,11.62c0.46-0.44,0.92-0.89,1.37-1.34
				C882.24,586.24,892.25,564.87,893.25,541.17L893.25,541.17z M859.27,608.48c-4.92-3.83-10.23-7.18-15.87-9.98
				c-6.37,10.95-14.4,20.59-23.7,28.48C834.48,624.06,847.98,617.58,859.27,608.48L859.27,608.48z M767.57,479.26
				c0.33,0.13,0.67,0.26,1,0.39c9.2,3.52,19.1,5.62,29.45,6.05v-38.84C785.82,454.93,775.39,466.04,767.57,479.26L767.57,479.26z
				 M805.8,485.69c10.34-0.42,20.25-2.53,29.45-6.05c0.34-0.13,0.67-0.26,1.01-0.39c-7.83-13.22-18.25-24.33-30.45-32.41V485.69
				L805.8,485.69z M838.01,486.91c-10.07,3.85-20.91,6.14-32.21,6.57v39.92h45.96c-0.55-17.13-4.76-33.2-11.77-47.27
				C839.34,486.4,838.68,486.66,838.01,486.91L838.01,486.91z M851.76,541.17H805.8v39.92c11.31,0.43,22.14,2.72,32.21,6.57
				c0.66,0.25,1.32,0.52,1.98,0.78C847,574.37,851.21,558.3,851.76,541.17L851.76,541.17z M835.25,594.92
				c-9.2-3.52-19.1-5.62-29.45-6.05v38.85c12.2-8.08,22.63-19.19,30.45-32.41C835.92,595.18,835.58,595.05,835.25,594.92z"/>
		</g>
		<g>
			<path style="fill-rule:evenodd;clip-rule:evenodd;fill:#0149D3;stroke:#0149D3;stroke-width:4;stroke-miterlimit:10;" d="
				M801.91,640.37c-28.47,0-54.24-11.54-72.89-30.19c-18.66-18.66-30.2-44.43-30.2-72.9c0-28.47,11.54-54.24,30.2-72.9
				c18.66-18.65,44.43-30.19,72.89-30.19c5.34,0,10.59,0.41,15.71,1.19c-3.5,4.09-6.36,8.76-8.41,13.83
				c-1.12-0.82-2.26-1.61-3.41-2.37v16.52c-0.14,1.51-0.21,3.04-0.21,4.58c0,1.2,0.07,2.44,0.21,3.69v14.05
				c1.19-0.05,2.38-0.12,3.57-0.21c0.94,2.48,2.04,4.99,3.26,7.51c-2.25,0.24-4.53,0.4-6.82,0.49v39.92h33.49
				c0.94,1.18,1.86,2.3,2.73,3.35c1.49,1.8,3.05,3.27,4.67,4.43H805.8v39.92c11.31,0.43,22.14,2.72,32.21,6.57
				c0.66,0.25,1.32,0.51,1.98,0.78c6.67-13.38,10.8-28.58,11.66-44.77c2.58,0.78,5.21,0.8,7.79,0.08
				c-0.88,17.29-5.26,33.55-12.37,47.9c6.46,3.23,12.52,7.14,18.11,11.62c0.46-0.44,0.92-0.89,1.37-1.34
				c15.69-15.69,25.7-37.06,26.69-60.75H864.7c1.62-1.15,3.18-2.63,4.67-4.43c0.87-1.06,1.78-2.17,2.73-3.35h21.15
				c-0.34-8.15-1.75-16.03-4.09-23.5c2.35-3.65,4.6-7.39,6.64-11.12c0.34-0.62,0.67-1.24,1-1.86c5.28,12.4,8.21,26.05,8.21,40.37
				c0,28.47-11.54,54.24-30.19,72.9C856.15,628.84,830.38,640.37,801.91,640.37L801.91,640.37z M859.27,608.48
				c-4.92-3.83-10.23-7.18-15.87-9.98c-6.37,10.95-14.4,20.59-23.7,28.48C834.47,624.06,847.98,617.58,859.27,608.48L859.27,608.48z
				 M784.13,626.97c-9.3-7.89-17.33-17.53-23.7-28.48c-5.64,2.8-10.96,6.15-15.87,9.98C755.84,617.58,769.34,624.06,784.13,626.97
				L784.13,626.97z M738.64,603.27c5.59-4.49,11.65-8.39,18.11-11.62c-7.46-15.06-11.92-32.22-12.47-50.47h-33.7
				c0.99,23.7,11,45.06,26.69,60.75C737.72,602.38,738.18,602.83,738.64,603.27L738.64,603.27z M710.57,533.39h33.7
				c0.56-18.26,5.02-35.42,12.47-50.47c-6.46-3.23-12.52-7.14-18.11-11.62c-0.46,0.44-0.92,0.89-1.37,1.34
				C721.58,488.33,711.57,509.7,710.57,533.39L710.57,533.39z M744.55,466.09c4.92,3.83,10.23,7.18,15.87,9.98
				c6.37-10.95,14.4-20.59,23.7-28.48C769.34,450.51,755.84,456.99,744.55,466.09L744.55,466.09z M836.25,595.31
				c-0.33-0.13-0.67-0.26-1-0.39c-9.2-3.52-19.1-5.62-29.45-6.05v38.84C818,619.64,828.43,608.53,836.25,595.31L836.25,595.31z
				 M798.02,588.88c-10.34,0.42-20.25,2.53-29.45,6.05c-0.34,0.13-0.67,0.26-1.01,0.39c7.83,13.22,18.25,24.33,30.45,32.41V588.88
				L798.02,588.88z M765.81,587.66c10.07-3.85,20.91-6.14,32.21-6.57v-39.92h-45.96c0.55,17.13,4.76,33.2,11.77,47.27
				C764.48,588.17,765.14,587.91,765.81,587.66L765.81,587.66z M752.06,533.39h45.96v-39.92c-11.31-0.43-22.14-2.72-32.21-6.57
				c-0.66-0.25-1.32-0.52-1.98-0.78C756.82,500.2,752.61,516.27,752.06,533.39L752.06,533.39z M768.57,479.65
				c9.2,3.52,19.1,5.62,29.45,6.05v-38.85c-12.2,8.08-22.63,19.19-30.45,32.41C767.9,479.39,768.24,479.52,768.57,479.65z"/>
		</g>
	</g>
</g>
<g id="Capa_6">
	<path style="fill-rule:evenodd;clip-rule:evenodd;fill:#FFFFFF;" d="M494.5,938.5c0,0-98-70-43-147s146-68,146-68
		s-40,55.68,0,101.84c40,46.16-17,89.16-17,89.16s-18.08,15-35.54,24c0,0-37.46-35-31.46-92C513.5,846.5,486.5,854.5,494.5,938.5z"
		/>
</g>
<g id="Capa_8">
	<path style="fill:#FFFFFF;" d="M320.52,629H192.48c-4.69,0-8.48-3.8-8.48-8.48v-95.03c0-4.69,3.8-8.48,8.48-8.48h128.03
		c4.69,0,8.48,3.8,8.48,8.48v95.03C329,625.2,325.2,629,320.52,629z"/>
	<path style="fill:#FFFFFF;" d="M316.47,547v-46.91c0-31.97-24.71-59.03-56.63-60.68c-34.48-1.79-63,25.64-63,59.73V547h32.89
		v-47.31c0-12.47,12.28-27.37,24.75-27.37c16.52,0,29.1,12.9,29.1,26.83V547H316.47z"/>
	<g id="padlock">
		<path style="fill:#0149D3;" d="M266.08,573.07c3.51-2.99,5.54-7.37,5.54-11.98c0-8.82-7.15-15.97-15.97-15.97
			c-8.82,0-15.97,7.15-15.97,15.97c0,4.61,2.03,8.99,5.54,11.98c1.63,1.42,1.25,30.93,1.25,30.93h19.35
			C265.83,604,264.46,574.49,266.08,573.07z"/>
	</g>
</g>
</svg>
