<?xml version="1.0" encoding="UTF-8"?>
<!DOCTYPE svg PUBLIC "-//W3C//DTD SVG 1.1//EN" "http://www.w3.org/Graphics/SVG/1.1/DTD/svg11.dtd">
<!-- Creator: CorelDRAW X5 -->
<svg xmlns="http://www.w3.org/2000/svg" xml:space="preserve" width="2048px" height="2048px" style="shape-rendering:geometricPrecision; text-rendering:geometricPrecision; image-rendering:optimizeQuality; fill-rule:evenodd; clip-rule:evenodd"
viewBox="0 0 2048 2048"
 xmlns:xlink="http://www.w3.org/1999/xlink">
 <defs>
  <style type="text/css">
   <![CDATA[
    .fil8 {fill:none}
    .fil5 {fill:#546E7A}
    .fil1 {fill:#5A6369}
    .fil2 {fill:#787F85}
    .fil6 {fill:#78909C}
    .fil3 {fill:#AF2F0E}
    .fil7 {fill:#BC2D09}
    .fil0 {fill:#CA2E07}
    .fil4 {fill:#DD2C00}
   ]]>
  </style>
 </defs>
 <g id="Layer_x0020_1">
  <metadata id="CorelCorpID_0Corel-Layer"/>
  <g id="_419772568">
   <path class="fil0" d="M1232 680c-43,62 -122,173 -166,234 -48,65 -97,130 -146,194 -6,7 -11,15 -17,22 -53,70 -107,140 -159,211 -58,79 -114,158 -169,239 -3,5 -2,12 3,16l162 109c5,3 12,2 16,-3 54,-81 106,-163 157,-246 46,-76 91,-152 136,-228 4,-7 9,-15 13,-22 41,-70 82,-140 124,-209 41,-67 118,-181 161,-247 -6,-4 -11,-8 -17,-12 -25,-17 -52,-33 -79,-48 -6,-3 -13,-7 -19,-11z"/>
   <path class="fil1" d="M1191 403c46,63 51,111 35,189l-1 6 -57 85c0,0 1,0 1,0 21,7 43,20 62,31 27,15 55,32 81,49 40,27 75,59 104,98 21,28 37,58 53,90 17,33 33,67 64,89 0,0 1,0 1,0 114,-95 195,-192 228,-340l-2 -1c-31,-20 -69,-22 -105,-25 -35,-3 -68,-6 -103,-15 -47,-12 -90,-33 -130,-60 -29,-20 -56,-42 -79,-68 -18,-20 -32,-41 -47,-63 -7,-11 -14,-21 -22,-31 -26,-35 -54,-58 -89,-76 -93,-46 -22,5 7,43z"/>
   <path class="fil2" d="M1493 995c10,17 23,32 39,43 0,0 1,0 1,0 114,-95 195,-192 228,-340l-2 -1c-13,-8 -26,-13 -41,-17 -59,112 -134,217 -226,315z"/>
   <path class="fil3" d="M1274 738l-615 912 81 54c5,3 12,2 16,-3 202,-301 372,-622 575,-926 -18,-13 -37,-26 -56,-37z"/>
  </g>
  <g id="_419771944">
   <path class="fil4" d="M816 680c43,62 122,173 166,234 48,65 97,130 146,194 6,7 11,15 17,22 53,70 107,140 159,211 58,79 114,158 169,239 3,5 2,12 -3,16l-162 109c-5,3 -12,2 -16,-3 -54,-81 -106,-163 -157,-246 -46,-76 -91,-152 -136,-228 -4,-7 -9,-15 -13,-22 -41,-70 -82,-140 -124,-209 -41,-67 -118,-181 -161,-247 6,-4 11,-8 17,-12 25,-17 52,-33 79,-48 6,-3 13,-7 19,-11z"/>
   <path class="fil5" d="M857 403c-46,63 -51,111 -35,189l1 6 57 85c0,0 -1,0 -1,0 -21,7 -43,20 -62,31 -27,15 -55,32 -81,49 -40,27 -75,59 -104,98 -21,28 -37,58 -53,90 -17,33 -33,67 -64,89 0,0 -1,0 -1,0 -114,-95 -195,-192 -228,-340l2 -1c31,-20 69,-22 105,-25 35,-3 68,-6 103,-15 47,-12 90,-33 130,-60 29,-20 56,-42 79,-68 18,-20 32,-41 47,-63 7,-11 14,-21 22,-31 26,-35 54,-58 89,-76 93,-46 22,5 -7,43z"/>
   <path class="fil6" d="M555 995c-10,17 -23,32 -39,43 0,0 -1,0 -1,0 -114,-95 -195,-192 -228,-340l2 -1c13,-8 26,-13 41,-17 59,112 134,217 226,315z"/>
   <path class="fil7" d="M774 738l615 912 -81 54c-5,3 -12,2 -16,-3 -202,-301 -372,-622 -575,-926 18,-13 37,-26 56,-37z"/>
  </g>
 </g>
 <rect class="fil8" width="2048" height="2048"/>
</svg>
