<?xml version="1.0" encoding="UTF-8"?>
<!DOCTYPE svg PUBLIC "-//W3C//DTD SVG 1.1//EN" "http://www.w3.org/Graphics/SVG/1.1/DTD/svg11.dtd">
<!-- Creator: CorelDRAW X5 -->
<svg xmlns="http://www.w3.org/2000/svg" xml:space="preserve" width="2048px" height="2048px" style="shape-rendering:geometricPrecision; text-rendering:geometricPrecision; image-rendering:optimizeQuality; fill-rule:evenodd; clip-rule:evenodd"
viewBox="0 0 2048 2048"
 xmlns:xlink="http://www.w3.org/1999/xlink">
 <defs>
  <style type="text/css">
   <![CDATA[
    .fil2 {fill:none}
    .fil0 {fill:#DD2C00}
    .fil1 {fill:#FFD600}
   ]]>
  </style>
 </defs>
 <g id="Layer_x0020_1">
  <metadata id="CorelCorpID_0Corel-Layer"/>
  <path class="fil0" d="M1768 1364l-630 -877c-11,-16 -24,-28 -38,-38 -23,-17 -49,-25 -75,-25 -26,0 -52,8 -75,25 -14,10 -26,22 -38,38l-630 877c-18,25 -28,59 -28,93 0,25 5,52 16,76 11,25 28,47 51,63 24,18 55,28 92,28l1223 0c30,0 56,-10 79,-26 24,-17 43,-42 56,-69 13,-27 19,-56 19,-84 0,-29 -8,-58 -24,-81z"/>
  <polygon class="fil1" points="947,1213 800,1178 1039,762 1202,867 1001,1111 1159,1148 866,1472 "/>
 </g>
 <rect class="fil2" width="2048" height="2048"/>
</svg>
