<?xml version="1.0" encoding="UTF-8"?>
<!DOCTYPE svg PUBLIC "-//W3C//DTD SVG 1.1//EN" "http://www.w3.org/Graphics/SVG/1.1/DTD/svg11.dtd">
<!-- Creator: CorelDRAW X5 -->
<svg xmlns="http://www.w3.org/2000/svg" xml:space="preserve" width="2048px" height="2048px" style="shape-rendering:geometricPrecision; text-rendering:geometricPrecision; image-rendering:optimizeQuality; fill-rule:evenodd; clip-rule:evenodd"
viewBox="0 0 2048 2048"
 xmlns:xlink="http://www.w3.org/1999/xlink">
 <defs>
  <style type="text/css">
   <![CDATA[
    .fil11 {fill:none}
    .fil8 {fill:#006064}
    .fil9 {fill:#00838F}
    .fil3 {fill:#008590}
    .fil4 {fill:#008D9A}
    .fil2 {fill:#0097A7}
    .fil5 {fill:#26C6DA}
    .fil10 {fill:#8BC34A}
    .fil7 {fill:#CDDC39}
    .fil6 {fill:#DD2C00}
    .fil1 {fill:#37474F;fill-rule:nonzero}
    .fil0 {fill:#414141;fill-rule:nonzero}
   ]]>
  </style>
 </defs>
 <g id="Layer_x0020_1">
  <metadata id="CorelCorpID_0Corel-Layer"/>
  <path class="fil0" d="M878 526c0,17 -14,31 -31,31 -17,0 -31,-14 -31,-31l0 -123c0,-17 14,-31 31,-31 17,0 31,14 31,31l0 123z"/>
  <path class="fil0" d="M824 279c0,-13 10,-23 23,-23 13,0 23,10 23,23l0 123c0,13 -10,23 -23,23 -13,0 -23,-10 -23,-23l0 -123z"/>
  <path class="fil1" d="M1173 526c0,17 -14,31 -31,31 -17,0 -31,-14 -31,-31l0 -47c0,-17 14,-31 31,-31 17,0 31,14 31,31l0 47z"/>
  <path class="fil1" d="M1282 526c0,17 -14,31 -31,31 -17,0 -31,-14 -31,-31l0 -47c0,-17 14,-31 31,-31 17,0 31,14 31,31l0 47z"/>
  <path class="fil1" d="M686 947c0,25 -23,45 -51,45 -28,0 -51,-20 -51,-45l0 -70c0,-25 23,-45 51,-45 28,0 51,20 51,45l0 70z"/>
  <path class="fil2" d="M1464 1074l0 -472c0,-28 -12,-53 -32,-71 -19,-18 -45,-29 -73,-29l-77 0 -62 0 -47 0 -62 0 -234 0 -62 0 -49 0c-28,0 -54,11 -73,29 -19,18 -32,44 -32,71l0 472c0,28 12,53 32,71 12,11 26,20 43,24l0 68 0 475c0,22 10,42 25,57 15,14 35,23 57,23l490 0c22,0 43,-9 57,-23 15,-14 25,-34 25,-57l0 -479 0 -64c16,-5 31,-13 43,-24 19,-18 32,-44 32,-71z"/>
  <path class="fil3" d="M662 1087c3,23 14,43 31,59 12,11 26,20 43,24l655 0c16,-5 31,-13 43,-24 16,-15 28,-36 31,-59l-801 0z"/>
  <path class="fil4" d="M736 1238l0 475c0,22 10,42 25,57 15,14 35,23 57,23l490 0c22,0 43,-9 57,-23 15,-14 25,-34 25,-57l0 -479 0 -64 -116 0 -113 0 -41 0 -113 0 -41 0 -113 0 -116 0 0 68z"/>
  <path class="fil5" d="M1171 1207l93 0c9,0 15,7 15,15l0 102c0,9 -7,15 -15,15l-93 0c-9,0 -15,-7 -15,-15l0 -102c0,-9 7,-15 15,-15z"/>
  <path class="fil5" d="M862 1545l93 0c9,0 15,7 15,15l0 102c0,9 -7,15 -15,15l-93 0c-9,0 -15,-7 -15,-15l0 -102c0,-9 7,-15 15,-15z"/>
  <path class="fil5" d="M847 1390c0,-9 7,-15 15,-15l93 0c9,0 15,7 15,15l0 102c0,9 -7,15 -15,15l-93 0c-9,0 -15,-7 -15,-15l0 -102z"/>
  <path class="fil5" d="M1017 1545l93 0c9,0 15,7 15,15l0 102c0,9 -7,15 -15,15l-93 0c-9,0 -15,-7 -15,-15l0 -102c0,-9 7,-15 15,-15z"/>
  <path class="fil5" d="M1171 1545l93 0c9,0 15,7 15,15l0 102c0,9 -7,15 -15,15l-93 0c-9,0 -15,-7 -15,-15l0 -102c0,-9 7,-15 15,-15z"/>
  <path class="fil5" d="M1156 1492l0 -102c0,-9 7,-15 15,-15l93 0c9,0 15,7 15,15l0 102c0,9 -7,15 -15,15l-93 0c-9,0 -15,-7 -15,-15z"/>
  <path class="fil5" d="M1017 1375l93 0c9,0 15,7 15,15l0 102c0,9 -7,15 -15,15l-93 0c-9,0 -15,-7 -15,-15l0 -102c0,-9 7,-15 15,-15z"/>
  <path class="fil5" d="M1001 1325l0 -102c0,-9 7,-15 15,-15l93 0c9,0 15,7 15,15l0 102c0,9 -7,15 -15,15l-93 0c-9,0 -15,-7 -15,-15z"/>
  <path class="fil5" d="M862 1207l93 0c9,0 15,7 15,15l0 102c0,9 -7,15 -15,15l-93 0c-9,0 -15,-7 -15,-15l0 -102c0,-9 7,-15 15,-15z"/>
  <path class="fil6" d="M1111 981l153 0c9,0 15,7 15,15l0 28c0,9 -7,15 -15,15l-153 0c-9,0 -15,-7 -15,-15l0 -28c0,-9 7,-15 15,-15z"/>
  <path class="fil7" d="M847 1024l0 -28c0,-9 7,-15 15,-15l153 0c9,0 15,7 15,15l0 28c0,9 -7,15 -15,15l-153 0c-9,0 -15,-7 -15,-15z"/>
  <path class="fil8" d="M961 619c-9,0 -15,-7 -15,-15 0,-9 7,-15 15,-15l203 0c9,0 15,7 15,15 0,9 -7,15 -15,15l-203 0z"/>
  <polygon class="fil9" points="773,940 773,668 1353,668 1353,940 "/>
  <polygon class="fil10" points="788,925 1338,925 1338,683 788,683 "/>
 </g>
 <rect class="fil11" width="2048" height="2048"/>
</svg>
