<?xml version="1.0" encoding="UTF-8"?>
<!DOCTYPE svg PUBLIC "-//W3C//DTD SVG 1.1//EN" "http://www.w3.org/Graphics/SVG/1.1/DTD/svg11.dtd">
<!-- Creator: CorelDRAW X5 -->
<svg xmlns="http://www.w3.org/2000/svg" xml:space="preserve" width="2048px" height="2048px" style="shape-rendering:geometricPrecision; text-rendering:geometricPrecision; image-rendering:optimizeQuality; fill-rule:evenodd; clip-rule:evenodd"
viewBox="0 0 2048 2048"
 xmlns:xlink="http://www.w3.org/1999/xlink">
 <defs>
  <style type="text/css">
   <![CDATA[
    .fil14 {fill:none}
    .fil0 {fill:#263238}
    .fil4 {fill:#37474F}
    .fil13 {fill:#4E342E}
    .fil1 {fill:#BB2E0B}
    .fil2 {fill:#CB2D06}
    .fil11 {fill:#E5E6E7}
    .fil3 {fill:#EEEEEE}
    .fil8 {fill:#FAFAFA}
    .fil5 {fill:#263238;fill-rule:nonzero}
    .fil6 {fill:#37474F;fill-rule:nonzero}
    .fil10 {fill:#CB2D06;fill-rule:nonzero}
    .fil7 {fill:#DD2C00;fill-rule:nonzero}
    .fil12 {fill:#E93C06;fill-rule:nonzero}
    .fil9 {fill:#FF3D00;fill-rule:nonzero}
   ]]>
  </style>
 </defs>
 <g id="Layer_x0020_1">
  <metadata id="CorelCorpID_0Corel-Layer"/>
  <g id="_425767360">
   <path class="fil0" d="M523 281c-21,0 -39,65 -39,144 0,80 17,144 39,144 21,0 39,-65 39,-144 0,-80 -17,-144 -39,-144z"/>
   <path class="fil1" d="M1101 398l125 0c17,0 31,14 31,31l0 205c0,17 -14,31 -31,31l-125 0c-17,0 -31,-14 -31,-31l0 -205c0,-17 14,-31 31,-31z"/>
   <path class="fil2" d="M1090 482l148 0c20,0 37,10 37,22l0 141c0,12 -17,22 -37,22l-148 0c-20,0 -37,-10 -37,-22l0 -141c0,-12 17,-22 37,-22z"/>
   <path class="fil3" d="M1175 472c1,0 1,0 2,0 4,-3 10,-4 14,-1l0 0c5,3 7,8 6,13 0,0 1,1 1,1 5,-1 10,1 13,6l0 0c3,5 2,10 -1,14 0,1 0,1 0,2 5,2 8,6 8,12l0 0c0,5 -3,10 -8,12 0,1 0,1 0,2 3,4 4,10 1,14l0 0c-3,5 -8,7 -13,6 0,0 -1,1 -1,1 1,5 -1,10 -6,13l0 0c-5,3 -10,2 -14,-1 -1,0 -1,0 -2,0 -2,5 -6,8 -12,8l0 0c-5,0 -10,-3 -12,-8 -1,0 -1,0 -2,0 -4,3 -10,4 -14,1l0 0c-5,-3 -7,-8 -6,-13 0,0 -1,-1 -1,-1 -5,1 -10,-1 -13,-6l0 0c-3,-5 -2,-10 1,-14 0,-1 0,-1 0,-2 -5,-2 -8,-6 -8,-12l0 0c0,-5 3,-10 8,-12 0,-1 0,-1 0,-2 -3,-4 -4,-10 -1,-14l0 0c3,-5 8,-7 13,-6 0,0 1,-1 1,-1 -1,-5 1,-10 6,-13l0 0c5,-3 10,-2 14,1 1,0 1,0 2,0 2,-5 6,-8 12,-8l0 0c5,0 10,3 12,8zm-12 29c10,0 17,8 17,17 0,10 -8,17 -17,17 -10,0 -17,-8 -17,-17 0,-10 8,-17 17,-17z"/>
   <path class="fil4" d="M536 259l348 136c16,5 26,23 20,39 -3,10 -11,17 -20,20l-351 137c-3,1 -5,1 -8,1 -1,0 -3,0 -4,0 -33,0 -59,-76 -59,-169 0,-93 27,-169 59,-169 1,0 3,0 4,0 4,0 8,1 11,2zm-13 44c18,0 33,55 33,122 0,67 -15,122 -33,122 -18,0 -33,-55 -33,-122 0,-67 15,-122 33,-122z"/>
   <path class="fil5" d="M1218 436c0,14 -24,2 -54,2 -30,0 -54,11 -54,-2l0 -99c0,-14 24,-25 54,-25 30,0 54,11 54,25l0 99z"/>
   <path class="fil6" d="M819 458c-17,0 -31,-14 -31,-31 0,-17 14,-31 31,-31l278 3 10 -28 108 -2 108 -64 244 -27 0 38c-107,13 -190,25 -236,40 -36,12 -39,18 -148,98 -5,3 -11,5 -17,5l-347 0z"/>
   <path class="fil4" d="M1142 458c-22,0 8,-18 8,-41 0,-22 -31,-41 -8,-41 228,0 291,47 347,98 56,52 91,122 96,198 3,35 1,72 1,107 0,22 -18,41 -41,41 -22,0 -41,-18 -41,-41 0,-18 0,-36 0,-55 0,-50 -11,-69 -12,-101 -2,-61 -38,-55 -42,-73 -8,-32 -21,-45 -53,-48 -14,-2 -70,-36 -92,-41 -6,-1 -156,-5 -164,-5z"/>
   <g>
    <path class="fil7" d="M1459 897l0 864c0,17 -14,31 -31,31l-528 0c-17,0 -31,-14 -31,-31l0 -864c0,-140 77,-231 176,-270 38,-15 79,-23 120,-23 41,0 82,8 120,23 99,40 176,130 176,270z"/>
    <rect class="fil8" x="943" y="941" width="441" height="513"/>
    <path class="fil9" d="M1061 1316c5,12 11,22 18,31 8,9 16,17 24,23 4,3 8,6 12,8 -6,-14 -8,-28 -6,-43 3,-21 13,-42 27,-60 17,-23 27,-47 33,-64 8,17 23,46 41,88 7,17 10,31 9,45 -1,15 -6,28 -11,38 7,-4 15,-8 21,-14 0,0 0,0 0,0 8,-7 15,-14 22,-24 3,-3 5,-7 7,-11 2,-4 4,-8 7,-12 3,-7 10,-24 9,-48 -1,-24 -8,-55 -34,-91 0,0 0,0 0,0 -23,-32 -38,-62 -47,-88 -12,-35 -14,-63 -14,-80 -1,1 -3,3 -4,4 -3,3 -6,7 -9,10 -10,13 -18,28 -23,43 0,0 0,0 0,0 -5,16 -8,34 -8,51 0,11 -1,20 -2,29 -1,9 -3,16 -5,22 -3,8 -7,13 -11,16 -4,2 -8,2 -12,1 -3,-1 -6,-4 -8,-8 -4,-6 -6,-17 -6,-33 -4,4 -9,11 -13,19 -5,10 -11,22 -16,38l0 0c-4,11 -6,21 -8,31 -2,10 -3,20 -3,28 0,0 0,0 0,0l0 5 0 0c0,1 0,2 0,3 0,1 0,2 0,3l0 0 0 0c1,15 4,27 8,38z"/>
   </g>
   <g>
    <path class="fil10" d="M1163 1792l-263 0c-17,0 -31,-14 -31,-31l0 -864c0,-140 77,-231 176,-270 21,-8 43,-14 65,-18l54 0 0 1184z"/>
    <polygon class="fil11" points="943,941 1163,941 1163,1454 943,1454 "/>
    <path class="fil12" d="M1061 1316c5,12 11,22 18,31 8,9 16,17 24,23 4,3 8,6 12,8 -6,-14 -8,-28 -6,-43 3,-21 13,-42 27,-60 12,-16 21,-34 27,-48l0 -192c-8,11 -14,24 -18,37 0,0 0,0 0,0 -5,16 -8,34 -8,51 0,11 -1,20 -2,29 -1,9 -3,16 -5,22 -3,8 -7,13 -11,16 -4,2 -8,2 -12,1 -3,-1 -6,-4 -8,-8 -4,-6 -6,-17 -6,-33 -4,4 -9,11 -13,19 -5,10 -11,22 -16,38l0 0c-4,11 -6,21 -8,31 -2,10 -3,20 -3,28 0,0 0,0 0,0l0 5 0 0c0,1 0,2 0,3 0,1 0,2 0,3l0 0 0 0c1,15 4,27 8,38z"/>
   </g>
   <path class="fil13" d="M1146 519c0,10 8,17 17,17 10,0 17,-8 17,-17 0,-10 -8,-17 -17,-17 -10,0 -17,8 -17,17z"/>
  </g>
 </g>
 <rect class="fil14" width="2048" height="2048"/>
</svg>
