<svg id="Layer_2" data-name="Layer 2" xmlns="http://www.w3.org/2000/svg"
  xmlns:xlink="http://www.w3.org/1999/xlink" viewBox="0 0 24.1 32">
  <defs>
    <style>
      .cls-1 {
      fill: url(#Degradado_sin_nombre_25-2);
      }

      .cls-2 {
      fill: url(#Degradado_sin_nombre_18);
      }

      .cls-3 {
      fill: #0046c9;
      }

      .cls-4 {
      fill: url(#Degradado_sin_nombre_26-2);
      }

      .cls-5 {
      fill: url(#Degradado_sin_nombre_25);
      }

      .cls-6 {
      fill: url(#Degradado_sin_nombre_26);
      }
    </style>
    <linearGradient id="Degradado_sin_nombre_25" data-name="Degradado sin nombre 25" x1="1.65"
      y1="7.2" x2="20.91" y2="7.2" gradientUnits="userSpaceOnUse">
      <stop offset="0" stop-color="#0048d0" />
      <stop offset=".5" stop-color="#0048cf" stop-opacity=".4" />
      <stop offset=".55" stop-color="#0048cf" stop-opacity=".35" />
      <stop offset=".74" stop-color="#0048cf" stop-opacity=".16" />
      <stop offset=".9" stop-color="#0048cf" stop-opacity=".04" />
      <stop offset="1" stop-color="#0048d0" stop-opacity="0" />
    </linearGradient>
    <linearGradient id="Degradado_sin_nombre_26" data-name="Degradado sin nombre 26" x1="0"
      y1="21.61" x2="19.26" y2="21.61" gradientUnits="userSpaceOnUse">
      <stop offset="0" stop-color="#0048d0" stop-opacity="0" />
      <stop offset=".1" stop-color="#0048cf" stop-opacity=".04" />
      <stop offset=".26" stop-color="#0048cf" stop-opacity=".16" />
      <stop offset=".45" stop-color="#0048cf" stop-opacity=".35" />
      <stop offset=".5" stop-color="#0048cf" stop-opacity=".4" />
      <stop offset="1" stop-color="#0048d0" />
    </linearGradient>
    <linearGradient id="Degradado_sin_nombre_25-2" data-name="Degradado sin nombre 25" x1="4.84"
      y1="10.39" x2="24.1" y2="10.39" xlink:href="#Degradado_sin_nombre_25" />
    <linearGradient id="Degradado_sin_nombre_26-2" data-name="Degradado sin nombre 26" x1="3.19"
      y1="24.8" x2="22.44" y2="24.8" xlink:href="#Degradado_sin_nombre_26" />
    <linearGradient id="Degradado_sin_nombre_18" data-name="Degradado sin nombre 18" x1="1.65"
      y1="16.02" x2="22.44" y2="16.02" gradientUnits="userSpaceOnUse">
      <stop offset="0" stop-color="#0047d1" stop-opacity=".9" />
      <stop offset=".33" stop-color="#0049d1" stop-opacity=".1" />
      <stop offset=".66" stop-color="#0048cf" stop-opacity=".9" />
      <stop offset="1" stop-color="#0047cf" stop-opacity=".1" />
    </linearGradient>
  </defs>
  <g id="Layer_1-2" data-name="Layer 1">
    <g>
      <path class="cls-3"
        d="m18.69,20l-.27.27h-6.45c-.7,0-1.36-.28-1.85-.78l-4.98-5.08c-.47-.75-.38-1.75.28-2.4l.28-.28h6.43c.69,0,1.36.28,1.85.77,1.55,1.57,4.93,5.01,4.99,5.1.47.75.38,1.75-.28,2.4Z" />
      <path class="cls-5"
        d="m2.22,11.57l2.84,2.84h10.79l-2.38-2.38c-1.01-1.01-1.01-2.66,0-3.67l7.25-7.25c.41-.41.12-1.11-.46-1.11h-8.15c-.69,0-1.35.27-1.83.76L2.22,8.82c-.76.76-.76,1.99,0,2.75Z" />
      <path class="cls-6"
        d="m18.69,17.25l-2.84-2.84H5.06s2.38,2.38,2.38,2.38c1.01,1.01,1.01,2.66,0,3.67L.19,27.71c-.41.41-.12,1.11.46,1.11h8.15c.69,0,1.35-.27,1.83-.76l8.06-8.06c.76-.76.76-1.99,0-2.75Z" />
      <path class="cls-1"
        d="m5.41,14.75l2.84,2.84h10.79l-2.38-2.38c-1.01-1.01-1.01-2.66,0-3.67l7.25-7.25c.41-.41.12-1.11-.46-1.11h-8.15c-.69,0-1.35.27-1.83.76L5.41,12c-.76.76-.76,1.99,0,2.75Z" />
      <path class="cls-4"
        d="m21.87,20.43l-2.84-2.84h-10.79s2.38,2.38,2.38,2.38c1.01,1.01,1.01,2.66,0,3.67l-7.25,7.25c-.41.41-.12,1.11.46,1.11h8.15c.69,0,1.35-.27,1.83-.76l8.06-8.06c.76-.76.76-1.99,0-2.75Z" />
      <path class="cls-2"
        d="m21.87,23.18l-.29.29h-6.38c-.69,0-1.35-.27-1.83-.76L2.22,11.57c-.76-.76-.76-1.99,0-2.75l.25-.25h6.47c.69,0,1.35.27,1.83.76l11.1,11.1c.76.76.76,1.99,0,2.75Z" />
    </g>
  </g>
</svg>