<?xml version="1.0" encoding="utf-8"?>
<!-- Generator: Adobe Illustrator 25.4.1, SVG Export Plug-In . SVG Version: 6.00 Build 0)  -->
<svg version="1.0" xmlns="http://www.w3.org/2000/svg" xmlns:xlink="http://www.w3.org/1999/xlink" x="0px" y="0px"
	 viewBox="0 0 2522 1080" style="enable-background:new 0 0 2522 1080;" xml:space="preserve">
<g id="Capa_2">
	<circle style="fill:#0149D3;" cx="530.5" cy="545.5" r="478"/>
</g>
<g id="Capa_3">
	
		<rect x="517" y="169" transform="matrix(0.7071 0.7071 -0.7071 0.7071 546.7028 -213.8573)" style="fill:#FFFFFF;" width="29" height="768"/>
	
		<rect x="517" y="169" transform="matrix(-0.7071 0.7071 -0.7071 -0.7071 1298.3573 568.2028)" style="fill:#FFFFFF;" width="29" height="768"/>
</g>
<g id="Capa_4">
	<path style="fill:#FFFFFF;" d="M437.93,298.05l148.86-149.81c1.31-1.32,3.52,0.02,2.94,1.79l-34.99,108.65
		c-0.37,1.14,0.48,2.32,1.69,2.32h49.21c1.59,0,2.38,1.93,1.24,3.04L455.47,411.66c-1.34,1.31-3.54-0.1-2.91-1.86l37.6-105.48
		c0.41-1.14-0.43-2.35-1.64-2.37l-49.38-0.88C437.59,301.05,436.83,299.16,437.93,298.05z"/>
</g>
<g id="Capa_5">
	<circle style="fill-rule:evenodd;clip-rule:evenodd;fill:#FFFFFF;" cx="801" cy="537" r="99"/>
	<g>
		<g>
			<path style="fill-rule:evenodd;clip-rule:evenodd;fill:#0149D3;stroke:#0149D3;stroke-width:4;stroke-miterlimit:10;" d="
				M801.91,434.19c28.47,0,54.24,11.54,72.89,30.19c18.66,18.66,30.2,44.43,30.2,72.9c0,28.47-11.54,54.24-30.2,72.9
				c-18.66,18.65-44.43,30.19-72.89,30.19c-5.34,0-10.59-0.41-15.71-1.19c3.5-4.09,6.36-8.76,8.41-13.83
				c1.12,0.82,2.26,1.61,3.41,2.37V611.2c0.14-1.51,0.21-3.04,0.21-4.58c0-1.2-0.07-2.44-0.21-3.69v-14.05
				c-1.19,0.05-2.38,0.12-3.57,0.21c-0.94-2.48-2.04-4.99-3.26-7.51c2.25-0.24,4.53-0.4,6.82-0.49v-39.92h-33.49
				c-0.94-1.18-1.86-2.3-2.73-3.35c-1.49-1.8-3.05-3.27-4.67-4.43h40.89v-39.92c-11.31-0.43-22.14-2.72-32.21-6.57
				c-0.66-0.25-1.32-0.51-1.98-0.78c-6.67,13.38-10.8,28.58-11.66,44.77c-2.58-0.78-5.21-0.8-7.79-0.08
				c0.88-17.29,5.26-33.55,12.37-47.9c-6.46-3.23-12.52-7.14-18.11-11.62c-0.46,0.44-0.92,0.89-1.37,1.34
				c-15.69,15.69-25.7,37.06-26.69,60.75h28.55c-1.62,1.15-3.18,2.63-4.67,4.43c-0.87,1.06-1.78,2.17-2.73,3.35h-21.15
				c0.34,8.15,1.75,16.03,4.09,23.5c-2.35,3.65-4.6,7.39-6.64,11.12c-0.34,0.62-0.67,1.24-1,1.86c-5.28-12.4-8.21-26.05-8.21-40.37
				c0-28.47,11.54-54.24,30.19-72.9C747.67,445.73,773.44,434.19,801.91,434.19L801.91,434.19z M744.55,466.09
				c4.92,3.83,10.23,7.18,15.87,9.98c6.37-10.95,14.4-20.59,23.7-28.48C769.35,450.51,755.84,456.99,744.55,466.09L744.55,466.09z
				 M819.7,447.6c9.3,7.89,17.33,17.53,23.7,28.48c5.64-2.8,10.96-6.15,15.87-9.98C847.98,456.99,834.48,450.51,819.7,447.6
				L819.7,447.6z M865.18,471.3c-5.59,4.49-11.65,8.39-18.11,11.62c7.46,15.06,11.92,32.22,12.47,50.47h33.7
				c-0.99-23.7-11-45.06-26.69-60.75C866.1,472.19,865.64,471.74,865.18,471.3L865.18,471.3z M893.25,541.17h-33.7
				c-0.56,18.26-5.02,35.42-12.47,50.47c6.46,3.23,12.52,7.14,18.11,11.62c0.46-0.44,0.92-0.89,1.37-1.34
				C882.24,586.24,892.25,564.87,893.25,541.17L893.25,541.17z M859.27,608.48c-4.92-3.83-10.23-7.18-15.87-9.98
				c-6.37,10.95-14.4,20.59-23.7,28.48C834.48,624.06,847.98,617.58,859.27,608.48L859.27,608.48z M767.57,479.26
				c0.33,0.13,0.67,0.26,1,0.39c9.2,3.52,19.1,5.62,29.45,6.05v-38.84C785.82,454.93,775.39,466.04,767.57,479.26L767.57,479.26z
				 M805.8,485.69c10.34-0.42,20.25-2.53,29.45-6.05c0.34-0.13,0.67-0.26,1.01-0.39c-7.83-13.22-18.25-24.33-30.45-32.41V485.69
				L805.8,485.69z M838.01,486.91c-10.07,3.85-20.91,6.14-32.21,6.57v39.92h45.96c-0.55-17.13-4.76-33.2-11.77-47.27
				C839.34,486.4,838.68,486.66,838.01,486.91L838.01,486.91z M851.76,541.17H805.8v39.92c11.31,0.43,22.14,2.72,32.21,6.57
				c0.66,0.25,1.32,0.52,1.98,0.78C847,574.37,851.21,558.3,851.76,541.17L851.76,541.17z M835.25,594.92
				c-9.2-3.52-19.1-5.62-29.45-6.05v38.85c12.2-8.08,22.63-19.19,30.45-32.41C835.92,595.18,835.58,595.05,835.25,594.92z"/>
		</g>
		<g>
			<path style="fill-rule:evenodd;clip-rule:evenodd;fill:#0149D3;stroke:#0149D3;stroke-width:4;stroke-miterlimit:10;" d="
				M801.91,640.37c-28.47,0-54.24-11.54-72.89-30.19c-18.66-18.66-30.2-44.43-30.2-72.9c0-28.47,11.54-54.24,30.2-72.9
				c18.66-18.65,44.43-30.19,72.89-30.19c5.34,0,10.59,0.41,15.71,1.19c-3.5,4.09-6.36,8.76-8.41,13.83
				c-1.12-0.82-2.26-1.61-3.41-2.37v16.52c-0.14,1.51-0.21,3.04-0.21,4.58c0,1.2,0.07,2.44,0.21,3.69v14.05
				c1.19-0.05,2.38-0.12,3.57-0.21c0.94,2.48,2.04,4.99,3.26,7.51c-2.25,0.24-4.53,0.4-6.82,0.49v39.92h33.49
				c0.94,1.18,1.86,2.3,2.73,3.35c1.49,1.8,3.05,3.27,4.67,4.43H805.8v39.92c11.31,0.43,22.14,2.72,32.21,6.57
				c0.66,0.25,1.32,0.51,1.98,0.78c6.67-13.38,10.8-28.58,11.66-44.77c2.58,0.78,5.21,0.8,7.79,0.08
				c-0.88,17.29-5.26,33.55-12.37,47.9c6.46,3.23,12.52,7.14,18.11,11.62c0.46-0.44,0.92-0.89,1.37-1.34
				c15.69-15.69,25.7-37.06,26.69-60.75H864.7c1.62-1.15,3.18-2.63,4.67-4.43c0.87-1.06,1.78-2.17,2.73-3.35h21.15
				c-0.34-8.15-1.75-16.03-4.09-23.5c2.35-3.65,4.6-7.39,6.64-11.12c0.34-0.62,0.67-1.24,1-1.86c5.28,12.4,8.21,26.05,8.21,40.37
				c0,28.47-11.54,54.24-30.19,72.9C856.15,628.84,830.38,640.37,801.91,640.37L801.91,640.37z M859.27,608.48
				c-4.92-3.83-10.23-7.18-15.87-9.98c-6.37,10.95-14.4,20.59-23.7,28.48C834.47,624.06,847.98,617.58,859.27,608.48L859.27,608.48z
				 M784.13,626.97c-9.3-7.89-17.33-17.53-23.7-28.48c-5.64,2.8-10.96,6.15-15.87,9.98C755.84,617.58,769.34,624.06,784.13,626.97
				L784.13,626.97z M738.64,603.27c5.59-4.49,11.65-8.39,18.11-11.62c-7.46-15.06-11.92-32.22-12.47-50.47h-33.7
				c0.99,23.7,11,45.06,26.69,60.75C737.72,602.38,738.18,602.83,738.64,603.27L738.64,603.27z M710.57,533.39h33.7
				c0.56-18.26,5.02-35.42,12.47-50.47c-6.46-3.23-12.52-7.14-18.11-11.62c-0.46,0.44-0.92,0.89-1.37,1.34
				C721.58,488.33,711.57,509.7,710.57,533.39L710.57,533.39z M744.55,466.09c4.92,3.83,10.23,7.18,15.87,9.98
				c6.37-10.95,14.4-20.59,23.7-28.48C769.34,450.51,755.84,456.99,744.55,466.09L744.55,466.09z M836.25,595.31
				c-0.33-0.13-0.67-0.26-1-0.39c-9.2-3.52-19.1-5.62-29.45-6.05v38.84C818,619.64,828.43,608.53,836.25,595.31L836.25,595.31z
				 M798.02,588.88c-10.34,0.42-20.25,2.53-29.45,6.05c-0.34,0.13-0.67,0.26-1.01,0.39c7.83,13.22,18.25,24.33,30.45,32.41V588.88
				L798.02,588.88z M765.81,587.66c10.07-3.85,20.91-6.14,32.21-6.57v-39.92h-45.96c0.55,17.13,4.76,33.2,11.77,47.27
				C764.48,588.17,765.14,587.91,765.81,587.66L765.81,587.66z M752.06,533.39h45.96v-39.92c-11.31-0.43-22.14-2.72-32.21-6.57
				c-0.66-0.25-1.32-0.52-1.98-0.78C756.82,500.2,752.61,516.27,752.06,533.39L752.06,533.39z M768.57,479.65
				c9.2,3.52,19.1,5.62,29.45,6.05v-38.85c-12.2,8.08-22.63,19.19-30.45,32.41C767.9,479.39,768.24,479.52,768.57,479.65z"/>
		</g>
	</g>
</g>
<g id="Capa_6">
	<path style="fill-rule:evenodd;clip-rule:evenodd;fill:#FFFFFF;" d="M494.5,938.5c0,0-98-70-43-147s146-68,146-68
		s-40,55.68,0,101.84c40,46.16-17,89.16-17,89.16s-18.08,15-35.54,24c0,0-37.46-35-31.46-92C513.5,846.5,486.5,854.5,494.5,938.5z"
		/>
</g>
<g id="Capa_8">
	<path style="fill:#FFFFFF;" d="M320.52,629H192.48c-4.69,0-8.48-3.8-8.48-8.48v-95.03c0-4.69,3.8-8.48,8.48-8.48h128.03
		c4.69,0,8.48,3.8,8.48,8.48v95.03C329,625.2,325.2,629,320.52,629z"/>
	<path style="fill:#FFFFFF;" d="M316.47,547v-46.91c0-31.97-24.71-59.03-56.63-60.68c-34.48-1.79-63,25.64-63,59.73V547h32.89
		v-47.31c0-12.47,12.28-27.37,24.75-27.37c16.52,0,29.1,12.9,29.1,26.83V547H316.47z"/>
	<g id="padlock">
		<path style="fill:#0149D3;" d="M266.08,573.07c3.51-2.99,5.54-7.37,5.54-11.98c0-8.82-7.15-15.97-15.97-15.97
			c-8.82,0-15.97,7.15-15.97,15.97c0,4.61,2.03,8.99,5.54,11.98c1.63,1.42,1.25,30.93,1.25,30.93h19.35
			C265.83,604,264.46,574.49,266.08,573.07z"/>
	</g>
</g>
<g id="Capa_9">
	<g>
		<path style="fill:#F2F2F2;stroke:#F2F2F2;stroke-miterlimit:10;" d="M1195.26,719.42c-32.66-8.91-59.17-20.78-79.52-35.63
			L1116,593c21.63,13.58,80.74,32.06,105.35,39.26c24.59,7.22,49.4,10.82,74.43,10.82c25.45,0,44.85-3.5,58.21-10.5
			c13.36-7,20.04-16.86,20.04-29.58c0-11.45-6.04-20.78-18.13-27.99c-12.09-7.21-35.1-14.41-69.03-21.63
			c-41.99-8.91-74.86-19.5-98.61-31.81c-23.76-12.3-40.4-26.72-49.94-43.26s-14.31-36.9-14.31-61.07c0-27.56,7.73-52.27,23.22-74.12
			c15.48-21.84,37.32-39.02,65.53-51.53c28.2-12.51,60.54-18.77,97.02-18.77c32.23,0,63.51,4.56,93.84,13.68
			c30.32,9.12,53.97,20.89,70.94,35.31L1474,415c-40.72-27.99-118.64-52.48-163.59-52.48c-21.63,0-39.03,4.14-52.17,12.41
			c-13.15,8.27-19.72,19.19-19.72,32.76c0,8.06,2.33,14.63,7,19.72c4.66,5.09,13.36,10.08,26.08,14.95
			c12.72,4.88,31.59,9.86,56.62,14.95c40.72,8.91,72.74,19.62,96.07,32.13c23.32,12.52,39.86,27.04,49.62,43.58
			c9.75,16.54,14.63,36.26,14.63,59.17c0,44.12-16.97,78.57-50.9,103.38c-33.94,24.81-81.65,37.22-143.14,37.22
			C1261,732.78,1227.92,728.33,1195.26,719.42z"/>
		<path style="fill:#F2F2F2;stroke:#F2F2F2;stroke-miterlimit:10;" d="M1537.62,278.54h117.06v448.52h-117.06V278.54z"/>
		<path style="fill:#F2F2F2;stroke:#F2F2F2;stroke-miterlimit:10;" d="M1717.02,278.54h117.06v448.52h-117.06V278.54z"/>
		<path style="fill:#F2F2F2;stroke:#F2F2F2;stroke-miterlimit:10;" d="M2349.39,332.4v394.66H2247.6V491.67l-73.87,206.56
			c-7.59,21.23-27.7,35.39-50.25,35.39l0,0c-22.49,0-42.57-14.1-50.2-35.26l-73.17-202.88l-0.64,231.57H1897.7V332.4
			c0-29.74,24.11-53.86,53.86-53.86h1.97c22,0,41.79,13.38,49.98,33.8l121.31,302.31l120.7-302.23
			c8.17-20.46,27.98-33.88,50.01-33.88h0C2325.28,278.54,2349.39,302.65,2349.39,332.4z"/>
	</g>
</g>
<g id="Capa_10">
	<g>
		<path style="fill:#F2F2F2;" d="M1122.91,939.06V809.42h32.78c10.86,0,20.29,1.77,28.29,5.31c7.99,3.54,14.22,8.46,18.68,14.74
			c4.46,6.29,7.72,13.12,9.8,20.51c2.07,7.39,3.11,15.47,3.11,24.26c0,10.99-2.08,21.3-6.23,30.95
			c-4.15,9.65-10.62,17.7-19.41,24.17c-8.79,6.47-19.04,9.71-30.76,9.71H1122.91z M1195.24,874.24c0-14.4-3.24-25.82-9.71-34.24
			c-6.47-8.42-16.11-12.63-28.93-12.63h-13.92v92.47h15.93c10.99,0,19.84-4.61,26.55-13.83
			C1191.88,896.79,1195.24,886.2,1195.24,874.24z"/>
		<path style="fill:#F2F2F2;" d="M1245.6,939.06V809.42h19.78v129.64H1245.6z"/>
		<path style="fill:#F2F2F2;" d="M1352.35,812.9v17.03c-7.81-2.93-14.35-4.4-19.59-4.4c-3.91,0-7.66,1.5-11.26,4.49
			c-3.6,2.99-5.4,6.81-5.4,11.45c0,4.39,1.83,8.64,5.49,12.73c3.66,4.09,8.06,7.6,13.18,10.53c18.92,11.23,28.38,24.84,28.38,40.83
			c0,10.01-3.48,18.4-10.44,25.18c-6.96,6.78-15.56,10.16-25.82,10.16c-5.98,0-11.08-0.67-15.29-2.01
			c-4.21-1.34-9.25-3.6-15.11-6.78v-19.04c11.11,6.59,20.75,9.89,28.93,9.89c4.76,0,8.94-1.71,12.54-5.13
			c3.6-3.42,5.4-7.51,5.4-12.27c0-8.18-7.26-16.85-21.79-26c-8.42-5.49-14.9-11.17-19.41-17.03c-4.52-5.86-6.78-12.94-6.78-21.24
			c0-10.25,3.66-18.43,10.99-24.54c7.33-6.1,15.81-9.16,25.45-9.16C1340.87,807.59,1347.71,809.36,1352.35,812.9z"/>
		<path style="fill:#F2F2F2;" d="M1379.63,827.36v-17.94h70.13v17.94h-25.27v111.7h-19.78v-111.7H1379.63z"/>
		<path style="fill:#F2F2F2;" d="M1477.97,939.06V809.42h29.48c14.4,0,25.33,3.48,32.78,10.44c7.45,6.96,11.17,15.99,11.17,27.1
			c0,13.06-5.92,22.95-17.76,29.66c11.72,4.52,17.58,13.43,17.58,26.73v35.71h-19.78v-33.88c0-6.71-2.11-11.5-6.32-14.37
			c-4.21-2.87-9.43-4.3-15.66-4.3h-11.72v52.55H1477.97z M1507.45,827.36h-9.71v41.2h9.89c7.69,0,13.61-1.89,17.76-5.68
			c4.15-3.78,6.23-9.09,6.23-15.93c0-6.1-2.01-10.9-6.04-14.38C1521.55,829.1,1515.5,827.36,1507.45,827.36z"/>
		<path style="fill:#F2F2F2;" d="M1584.17,939.06V809.42h19.78v129.64H1584.17z"/>
		<path style="fill:#F2F2F2;" d="M1710.88,901.89c0,9.64-3.45,18.25-10.35,25.82c-6.9,7.57-16.08,11.35-27.56,11.35h-34.42V809.42
			h31.13c12.57,0,22.28,3.33,29.12,9.98c6.83,6.66,10.25,14.86,10.25,24.63c0,11.35-4.33,20.81-13,28.38
			c4.64,3.66,8.27,8.12,10.9,13.37C1709.57,891.03,1710.88,896.4,1710.88,901.89z M1688.54,845.86c0-5.86-2.26-10.41-6.78-13.64
			c-4.52-3.23-10.07-4.85-16.66-4.85c-2.32,0-4.58,0.18-6.78,0.55v36.26h11.35c5.74,0,10.31-1.65,13.73-4.94
			C1686.83,855.93,1688.54,851.47,1688.54,845.86z M1690.01,901.71c0-6.35-2.26-11.2-6.78-14.56c-4.52-3.36-10.62-5.04-18.31-5.04
			c-2.81,0-5.01,0.12-6.59,0.37v36.81h14.47c5.37,0,9.58-1.71,12.63-5.13C1688.48,910.74,1690.01,906.59,1690.01,901.71z"/>
		<path style="fill:#F2F2F2;" d="M1740.18,809.42h19.78v87.16c0,8.3,2.47,14.77,7.42,19.41c4.94,4.64,10.83,6.96,17.67,6.96
			c6.47,0,11.75-2.2,15.84-6.59c4.09-4.39,6.13-10.86,6.13-19.41v-87.53h19.78v87.53c0,14.41-3.88,25.33-11.63,32.78
			c-7.75,7.45-17.79,11.17-30.12,11.17c-12.21,0-22.74-3.87-31.59-11.63c-8.85-7.75-13.28-18.65-13.28-32.69V809.42z"/>
		<path style="fill:#F2F2F2;" d="M1861.4,939.06V809.42h19.78v129.64H1861.4z"/>
		<path style="fill:#F2F2F2;" d="M1915.78,939.06V809.42h32.78c10.86,0,20.29,1.77,28.29,5.31c7.99,3.54,14.22,8.46,18.68,14.74
			c4.46,6.29,7.72,13.12,9.8,20.51c2.07,7.39,3.11,15.47,3.11,24.26c0,10.99-2.08,21.3-6.23,30.95
			c-4.15,9.65-10.62,17.7-19.41,24.17c-8.79,6.47-19.04,9.71-30.76,9.71H1915.78z M1988.11,874.24c0-14.4-3.24-25.82-9.71-34.24
			c-6.47-8.42-16.11-12.63-28.93-12.63h-13.92v92.47h15.93c10.99,0,19.84-4.61,26.55-13.83
			C1984.75,896.79,1988.11,886.2,1988.11,874.24z"/>
		<path style="fill:#F2F2F2;" d="M2034.8,874.24c0-19.04,4.97-34.91,14.92-47.61c9.95-12.69,22.07-19.04,36.35-19.04
			c14.4,0,26.58,6.35,36.53,19.04c9.95,12.7,14.92,28.57,14.92,47.61c0,19.04-4.98,34.92-14.92,47.61
			c-9.95,12.7-22.13,19.04-36.53,19.04c-14.41,0-26.55-6.32-36.44-18.95C2039.75,909.3,2034.8,893.41,2034.8,874.24z
			 M2063.74,839.36c-6.11,9.22-9.16,20.85-9.16,34.88c0,14.04,3.05,25.67,9.16,34.88c6.1,9.22,13.55,13.82,22.34,13.82
			c8.79,0,16.27-4.61,22.43-13.82c6.16-9.22,9.25-20.84,9.25-34.88c0-14.04-3.08-25.66-9.25-34.88
			c-6.17-9.22-13.64-13.83-22.43-13.83C2077.29,825.53,2069.84,830.14,2063.74,839.36z"/>
		<path style="fill:#F2F2F2;" d="M2168.47,939.06V809.42h29.48c14.4,0,25.33,3.48,32.78,10.44c7.45,6.96,11.17,15.99,11.17,27.1
			c0,13.06-5.92,22.95-17.76,29.66c11.72,4.52,17.58,13.43,17.58,26.73v35.71h-19.78v-33.88c0-6.71-2.11-11.5-6.32-14.37
			c-4.21-2.87-9.43-4.3-15.66-4.3h-11.72v52.55H2168.47z M2197.95,827.36h-9.71v41.2h9.89c7.69,0,13.61-1.89,17.76-5.68
			c4.15-3.78,6.23-9.09,6.23-15.93c0-6.1-2.01-10.9-6.04-14.38C2212.05,829.1,2206.01,827.36,2197.95,827.36z"/>
		<path style="fill:#F2F2F2;" d="M2268.82,939.06l50.91-129.64h19.41l41.38,129.64h-19.96l-9.71-30.03h-50.17l-11.9,30.03H2268.82z
			 M2328.33,838.35l-20.69,52.74h37.72L2328.33,838.35z"/>
	</g>
</g>
<g id="Capa_11">
	<path style="fill:#F2F2F2;stroke:#F2F2F2;stroke-miterlimit:10;" d="M2410.25,873c-13.92,0-25.25-11.33-25.25-25.25
		s11.33-25.25,25.25-25.25s25.25,11.33,25.25,25.25S2424.17,873,2410.25,873z M2410.25,827.2c-11.33,0-20.55,9.22-20.55,20.55
		s9.22,20.55,20.55,20.55s20.55-9.22,20.55-20.55S2421.58,827.2,2410.25,827.2z"/>
	<g>
		<path style="fill:#F2F2F2;stroke:#F2F2F2;stroke-miterlimit:10;" d="M2400.52,832.78c2.05-0.37,5.04-0.63,8.17-0.63
			c4.23,0,7.11,0.71,9.1,2.38c1.62,1.35,2.54,3.39,2.54,5.92c0,3.8-2.58,6.39-5.36,7.37v0.13c2.14,0.81,3.38,2.84,4.11,5.71
			c0.94,3.69,1.74,7.07,2.33,8.22h-5.53c-0.46-0.85-1.16-3.29-1.99-6.96c-0.85-3.85-2.24-5.09-5.31-5.16h-2.71v12.12h-5.35V832.78z
			 M2405.86,845.79h3.19c3.65,0,5.91-1.93,5.91-4.86c0-3.21-2.26-4.72-5.75-4.73c-1.71,0-2.8,0.13-3.35,0.27V845.79z"/>
	</g>
</g>
</svg>
